<svg width="64" height="64" viewBox="0 0 64 64" fill="none" xmlns="http://www.w3.org/2000/svg"><circle cx="32" cy="32" r="32" fill="#C3121B"/><path d="M40.693 39.317H26.342c-.76 0-1.378-.617-1.378-1.377v-3.027l1.384.001c.848.001 1.355-.944.885-1.65l-3.045-4.576a1.062 1.062 0 0 0-1.768 0l-3.041 4.571c-.47.706.036 1.65.883 1.65l1.385.001v3.03a4.7 4.7 0 0 0 4.695 4.695h14.35a1.659 1.659 0 0 0 0-3.318ZM43.736 29.19l-1.385-.002v-3.127a4.701 4.701 0 0 0-4.695-4.696h-14.35a1.659 1.659 0 0 0 0 3.318h14.35c.76 0 1.378.617 1.378 1.378v3.125l-1.384-.002c-.848 0-1.355.945-.885 1.65l3.045 4.577c.42.632 1.348.632 1.768 0l3.041-4.571a1.062 1.062 0 0 0-.883-1.65Z" fill="#fff"/></svg>