<svg width="64" height="64" viewBox="0 0 64 64" fill="none" xmlns="http://www.w3.org/2000/svg"><circle cx="32" cy="32" r="32" fill="#C3121B"/><path d="M19.356 28.061h25.28c.884 0 1.434-.934 1.067-1.694l-3.153-6.708a1.187 1.187 0 0 0-1.066-.688H22.508c-.462 0-.877.273-1.067.688l-3.152 6.708c-.388.8.219 1.694 1.066 1.694ZM45.037 42.658H43.72v-12.23H20.267v12.23h-1.305a1.185 1.185 0 1 0 0 2.37h26.075a1.185 1.185 0 1 0 0-2.37Zm-21.677-8.32c0-.651.521-1.185 1.185-1.185h3.9c.651 0 1.185.534 1.185 1.185v2.999c0 .652-.534 1.185-1.186 1.185h-3.899a1.181 1.181 0 0 1-1.185-1.185v-2.999Zm11.224 3.734a2.807 2.807 0 0 1 2.809-2.81 2.802 2.802 0 0 1 2.809 2.81v4.586h-5.618v-4.586Z" fill="#fff"/></svg>