<svg width="64" height="64" viewBox="0 0 64 64" fill="none" xmlns="http://www.w3.org/2000/svg"><circle cx="32" cy="32" r="32" fill="#C3121B"/><g clip-path="url(#a)" stroke="#fff" stroke-width="2" stroke-miterlimit="10"><path d="M47 21c0-2.21-1.79-4-4-4v22c2.21 0 4 1.79 4 4s-1.79 4-4 4H21c-2.21 0-4-1.79-4-4m0 0c0-2.21 1.79-4 4-4V17c-2.21 0-4 1.79-4 4v22ZM47 21v22M43 25H21"/><path d="M38 30H26v12h12V30ZM32 30v4M26 37h7"/></g><defs><clipPath id="a"><path fill="#fff" transform="translate(16 16)" d="M0 0h32v32H0z"/></clipPath></defs></svg>