<svg width="64" height="64" viewBox="0 0 64 64" fill="none" xmlns="http://www.w3.org/2000/svg"><circle cx="32" cy="32" r="32" fill="#C3121B"/><path d="M47.233 17.164c0-.512-.384-.768-.768-.768l-3.968-.128a.978.978 0 0 0-.64.256l-2.304 2.304c-.256.256-.256.512-.256.768l.64 2.56-2.56-.64c-.256-.128-.64 0-.768.256l-1.664 1.408c-.256.256-.256.512-.256.768l.64 2.56-2.56-.64c-.256-.128-.64 0-.768.256l-3.712 3.712c-3.072-1.024-6.656-.384-9.088 2.048-3.328 3.328-3.328 8.96 0 12.288 3.456 3.456 8.96 3.456 12.288 0 2.432-2.432 3.072-6.016 2.048-9.088l13.568-13.312a.978.978 0 0 0 .256-.64l-.128-3.968ZM24.961 42.38c-.896.896-2.304.64-3.456-.384-1.024-1.024-1.152-2.56-.384-3.456.896-.896 2.432-.768 3.456.384 1.024 1.024 1.152 2.56.384 3.456Z" fill="#fff"/></svg>