<svg width="64" height="64" viewBox="0 0 64 64" fill="none" xmlns="http://www.w3.org/2000/svg"><circle cx="32" cy="32" r="32" fill="#C3121B"/><path d="M45.037 25.614a1.186 1.186 0 0 0 .426-2.291l-14.966-5.77a4.107 4.107 0 0 0-1.481-.275h-2.963a4.15 4.15 0 0 0-2.941 1.233l-4.995 5.087a1.184 1.184 0 0 0 .846 2.016h4.675v17.738h-1.917a1.185 1.185 0 1 0 0 2.37h10.94a1.185 1.185 0 1 0 0-2.37H30.75V25.614h10.172v2.745h-.5c-1.032 0-1.873.842-1.873 1.873v3.366c0 1.03.841 1.872 1.872 1.872h.645c.276 1.041.939 2 1.912 2.73.38.283.718.846.53 1.571a1.42 1.42 0 0 1-.993.995c-.995.256-1.861-.473-1.861-1.402a1.185 1.185 0 1 0-2.37 0 3.822 3.822 0 0 0 3.824 3.825 3.805 3.805 0 0 0 3.694-2.825 3.848 3.848 0 0 0-1.403-4.062 3.078 3.078 0 0 1-.758-.832h.146c1.031 0 1.873-.841 1.873-1.872v-3.366a1.877 1.877 0 0 0-1.873-1.873h-.495v-2.745h1.746Zm-23.25-2.37 3.016-3.072a1.766 1.766 0 0 1 1.25-.524h2.963c.216 0 .428.04.63.117l9.021 3.479c-15.62-.005-14.036 0-16.88 0Z" fill="#fff"/></svg>