<svg width="64" height="64" viewBox="0 0 64 64" fill="none" xmlns="http://www.w3.org/2000/svg"><circle cx="32" cy="32" r="32" fill="#C3121B"/><path d="M47.36 28.94c0-7.04-5.76-12.8-12.8-12.8-.64 0-1.28.64-1.28 1.28v11.52c0 .768.64 1.28 1.28 1.28h11.52c.64 0 1.28-.512 1.28-1.28Z" fill="#fff"/><path d="M42.24 34.06c0-.768-.513-1.28-1.28-1.28h-9.473c-.384 0-.768-.384-.768-.768V22.54c0-.768-.64-1.28-1.28-1.28-7.808 0-13.952 6.912-12.672 14.976a12.78 12.78 0 0 0 10.496 10.496c8.064 1.28 14.976-4.864 14.976-12.672Z" fill="#fff"/></svg>