<svg width="64" height="64" viewBox="0 0 64 64" fill="none" xmlns="http://www.w3.org/2000/svg"><circle cx="32" cy="32" r="32" fill="#C3121B"/><path d="M43.344 44.332h-.996V19.668h.994a1.23 1.23 0 1 0 0-2.461h-21.69a1.23 1.23 0 1 0 0 2.461h1.003v24.664h-.997c-.689 0-1.23.554-1.23 1.23 0 .678.541 1.231 1.23 1.231h21.686c.677 0 1.231-.553 1.231-1.23 0-.677-.554-1.231-1.23-1.231Zm-5.92-18.314c.677 0 1.231.554 1.231 1.23v1.232c0 .676-.554 1.23-1.23 1.23-.677 0-1.231-.554-1.231-1.23v-1.231c0-.677.553-1.231 1.23-1.231Zm-1.23-3.692v-1.231c0-.677.553-1.23 1.23-1.23.677 0 1.231.553 1.231 1.23v1.23c0 .678-.554 1.231-1.23 1.231-.677 0-1.231-.553-1.231-1.23Zm1.23 9.846c.677 0 1.231.554 1.231 1.23v1.231c0 .677-.554 1.231-1.23 1.231-.677 0-1.231-.554-1.231-1.23v-1.231c0-.677.553-1.231 1.23-1.231Zm-4.923-2.462c-.677 0-1.23-.554-1.23-1.23v-1.231c0-.677.553-1.231 1.23-1.231.677 0 1.231.554 1.231 1.23v1.232c0 .676-.554 1.23-1.23 1.23Zm1.231 3.693v1.23c0 .677-.554 1.231-1.23 1.231-.678 0-1.231-.554-1.231-1.23v-1.231c0-.677.553-1.231 1.23-1.231.677 0 1.231.554 1.231 1.23Zm-1.23-9.847c-.678 0-1.231-.553-1.231-1.23v-1.231c0-.677.553-1.23 1.23-1.23.677 0 1.231.553 1.231 1.23v1.23c0 .678-.554 1.231-1.23 1.231Zm-4.924 6.154c-.677 0-1.23-.554-1.23-1.23v-1.231c0-.677.553-1.231 1.23-1.231.677 0 1.231.554 1.231 1.23v1.232c0 .676-.554 1.23-1.23 1.23Zm1.231 3.693v1.23c0 .677-.554 1.231-1.23 1.231-.678 0-1.231-.554-1.231-1.23v-1.231c0-.677.553-1.231 1.23-1.231.677 0 1.231.554 1.231 1.23Zm-1.23-9.847c-.678 0-1.231-.553-1.231-1.23v-1.231c0-.677.553-1.23 1.23-1.23.677 0 1.231.553 1.231 1.23v1.23c0 .678-.554 1.231-1.23 1.231Zm2.19 20.776v-3.04a2.734 2.734 0 0 1 2.732-2.733c1.482 0 2.72 1.181 2.72 2.733v3.04H29.77Z" fill="#fff"/></svg>