<svg width="64" height="64" viewBox="0 0 64 64" fill="none" xmlns="http://www.w3.org/2000/svg"><circle cx="32" cy="32" r="32" fill="#C3121B"/><g clip-path="url(#a)"><path d="M40.1 20.5H24.9c-2.4 0-4.4 2-4.4 4.4v15.2c0 2.4 2 4.4 4.4 4.4h15.2c2.4 0 4.4-2 4.4-4.4V24.9c0-2.4-2-4.4-4.4-4.4Zm-3.3 11.3-5 3.8c-.3.2-.6.3-.9.3-.4 0-.8-.2-1.1-.5L28 33.3c-.5-.6-.5-1.6.2-2.1.6-.5 1.6-.5 2.1.2l.9 1 3.9-3c.6-.5 1.6-.4 2.1.3.4.6.3 1.6-.4 2.1Z" fill="#fff"/></g><defs><clipPath id="a"><path fill="#fff" transform="translate(20 20)" d="M0 0h25v25H0z"/></clipPath></defs></svg>