<svg width="64" height="64" viewBox="0 0 64 64" fill="none" xmlns="http://www.w3.org/2000/svg"><circle cx="32" cy="32" r="32" fill="#C3121B"/><path d="M41.53 23.18c.383-.384.767-.64 1.28-.896v-3.072.128c-.257-1.792-1.793-3.2-3.585-3.2H25.53c-1.792 0-3.456 1.28-3.584 3.584v23.552c0 2.048 1.664 3.584 3.584 3.584h13.568c1.92 0 3.584-1.536 3.584-3.584v-6.272c-.64.768-1.536 1.28-2.56 1.536v1.28a1.42 1.42 0 0 1-1.408 1.408h-12.8a1.42 1.42 0 0 1-1.408-1.408V21.9c0-.768.64-1.408 1.408-1.408h12.8c.768 0 1.408.64 1.408 1.408v2.56l1.408-1.28Z" fill="#fff"/><path d="M47.161 24.972c-1.024-1.024-2.816-1.024-3.968 0l-6.272 6.272c-.512.512-.768 1.024-1.024 1.664l-.896 3.2c-.128.256 0 .64.256.768s.512.256.768.256l3.2-.896c.64-.256 1.28-.512 1.664-1.024l6.272-6.272c1.152-1.152 1.152-2.944 0-3.968Z" fill="#fff"/></svg>