<svg width="64" height="64" viewBox="0 0 64 64" fill="none" xmlns="http://www.w3.org/2000/svg"><circle cx="32" cy="32" r="32" fill="#C3121B"/><path d="m42.147 25.84-8.965-6.81a1.122 1.122 0 0 0-1.364 0l-8.965 6.81a1.083 1.083 0 0 0-.43.869v17.39c0 .606.496 1.1 1.1 1.1h6.27v-3.761a2.704 2.704 0 0 1 2.707-2.706c1.43 0 2.706 1.144 2.706 2.706V45.2h6.27c.605 0 1.1-.495 1.1-1.1V26.709c0-.341-.154-.66-.43-.87ZM27 35.3c0 .605-.495 1.1-1.1 1.1-.616 0-1.1-.495-1.1-1.1v-1.232c0-.616.484-1.1 1.1-1.1.605 0 1.1.484 1.1 1.1V35.3Zm0-5.632c0 .605-.495 1.1-1.1 1.1-.616 0-1.1-.495-1.1-1.1v-1.243c0-.605.484-1.1 1.1-1.1.605 0 1.1.495 1.1 1.1v1.243Zm4.4 5.632c0 .605-.495 1.1-1.1 1.1-.616 0-1.1-.495-1.1-1.1v-1.232c0-.616.484-1.1 1.1-1.1.605 0 1.1.484 1.1 1.1V35.3Zm0-5.632c0 .605-.495 1.1-1.1 1.1-.616 0-1.1-.495-1.1-1.1v-1.243c0-.605.484-1.1 1.1-1.1.605 0 1.1.495 1.1 1.1v1.243Zm1-4.092a1.64 1.64 0 0 1-1.65-1.65c0-.902.727-1.65 1.65-1.65.903 0 1.65.748 1.65 1.65 0 .913-.747 1.65-1.65 1.65Zm3.4 9.724c0 .605-.495 1.1-1.1 1.1-.616 0-1.1-.495-1.1-1.1v-1.232c0-.616.484-1.1 1.1-1.1.605 0 1.1.484 1.1 1.1V35.3Zm0-5.632c0 .605-.495 1.1-1.1 1.1-.616 0-1.1-.495-1.1-1.1v-1.243c0-.605.484-1.1 1.1-1.1.605 0 1.1.495 1.1 1.1v1.243Zm4.4 5.632c0 .605-.495 1.1-1.1 1.1-.616 0-1.1-.495-1.1-1.1v-1.232c0-.616.484-1.1 1.1-1.1.605 0 1.1.484 1.1 1.1V35.3Zm0-5.632c0 .605-.495 1.1-1.1 1.1-.616 0-1.1-.495-1.1-1.1v-1.243c0-.605.484-1.1 1.1-1.1.605 0 1.1.495 1.1 1.1v1.243Z" fill="#fff"/></svg>