<svg width="64" height="64" viewBox="0 0 64 64" fill="none" xmlns="http://www.w3.org/2000/svg"><circle cx="32" cy="32" r="32" fill="#C3121B"/><path d="M42.642 18.063H21.357c-1.98 0-3.58 1.6-3.58 3.567v11.828c0 1.98 1.6 3.58 3.58 3.58h9.515v4.854l-1.038-1.038a1.185 1.185 0 1 0-1.676 1.675l3.06 3.061c.22.22.53.348.839.348.308 0 .618-.127.839-.348l3.06-3.06a1.185 1.185 0 1 0-1.675-1.676l-1.039 1.038v-4.855h9.4c1.98 0 3.58-1.6 3.58-3.579V21.63c0-1.967-1.6-3.567-3.58-3.567Zm1.186 10.204a.672.672 0 0 1-.486.64 7.998 7.998 0 0 0-5.286 5.286.661.661 0 0 1-.64.486H26.583a.661.661 0 0 1-.64-.486 7.998 7.998 0 0 0-5.286-5.286.672.672 0 0 1-.486-.64v-1.422c0-.296.202-.545.486-.64a8.005 8.005 0 0 0 5.286-5.274.658.658 0 0 1 .64-.498h10.833c.308 0 .557.201.64.498a8.005 8.005 0 0 0 5.286 5.274.683.683 0 0 1 .486.64v1.422Z" fill="#fff"/><path d="M32 24.004c-1.683 0-3.047 1.589-3.047 3.548 0 1.96 1.364 3.55 3.047 3.55s3.047-1.59 3.047-3.55c0-1.96-1.364-3.548-3.047-3.548Z" fill="#fff"/></svg>