<svg width="64" height="64" viewBox="0 0 64 64" fill="none" xmlns="http://www.w3.org/2000/svg"><circle cx="32" cy="32" r="32" fill="#C3121B"/><path d="M40.376 18.2H22.637a3.947 3.947 0 0 0-3.936 3.936v17.739c0 2.165 1.77 3.925 3.936 3.925h17.739a3.929 3.929 0 0 0 3.925-3.925V22.136c0-2.165-1.76-3.936-3.925-3.936ZM31.5 40.29c-5.12 0-9.28-4.16-9.28-9.29 0-5.12 4.16-9.28 9.28-9.28 5.12 0 9.29 4.16 9.29 9.28 0 5.13-4.17 9.29-9.29 9.29Z" fill="#fff"/><path d="M31.5 25.273c-.586 0-1.066.469-1.066 1.066v4.021l-2.464 1.302a1.072 1.072 0 0 0-.448 1.44c.29.547.975.702 1.45.448l3.03-1.6c.352-.181.565-.544.565-.95v-4.66c0-.598-.48-1.067-1.066-1.067Z" fill="#fff"/></svg>