<svg width="64" height="64" viewBox="0 0 64 64" fill="none" xmlns="http://www.w3.org/2000/svg"><circle cx="32" cy="32" r="32" fill="#C3121B"/><path d="M41.41 20.729h-.676v3.508a2.964 2.964 0 0 1-5.926 0v-3.508h-5.617v3.508a2.964 2.964 0 0 1-5.926 0v-3.508h-.676a4.815 4.815 0 0 0-4.812 4.811v15.894a4.823 4.823 0 0 0 4.812 4.812h18.82a4.823 4.823 0 0 0 4.813-4.812V25.54a4.815 4.815 0 0 0-4.812-4.811Zm2.441 20.705c0 1.339-1.09 2.441-2.441 2.441H22.59a2.446 2.446 0 0 1-2.442-2.441V30.447H43.85v10.987Z" fill="#fff"/><path d="M26.228 25.422c.652 0 1.185-.521 1.185-1.185v-5.298c0-.652-.533-1.185-1.185-1.185s-1.185.533-1.185 1.185v5.298c0 .664.533 1.185 1.185 1.185ZM37.77 25.422c.65 0 1.184-.521 1.184-1.185v-5.298c0-.652-.533-1.185-1.185-1.185s-1.185.533-1.185 1.185v5.298c0 .664.533 1.185 1.185 1.185ZM35.891 40.712h3.13c1.09 0 1.99-.89 1.99-1.991v-3.13c0-1.09-.9-1.99-1.99-1.99h-3.13c-1.102 0-1.99.9-1.99 1.99v3.13c0 1.102.888 1.99 1.99 1.99ZM24.99 40.712h3.128c1.09 0 1.991-.89 1.991-1.991v-3.13c0-1.09-.9-1.99-1.991-1.99h-3.129c-1.102 0-1.991.9-1.991 1.99v3.13c0 1.102.889 1.99 1.991 1.99Z" fill="#fff"/></svg>