<svg width="64" height="64" viewBox="0 0 64 64" fill="none" xmlns="http://www.w3.org/2000/svg"><circle cx="32" cy="32" r="32" fill="#C3121B"/><path d="M37.437 19.198H22.354a1.05 1.05 0 0 0-1.045 1.056V39.53a1.05 1.05 0 0 0 1.045 1.056h15.083c.576 0 1.045-.48 1.045-1.056V20.254c0-.576-.47-1.056-1.045-1.056Zm-3.947 18.08H26.3c-.586 0-1.056-.47-1.056-1.056 0-.586.47-1.056 1.056-1.056h7.19c.576 0 1.056.47 1.056 1.056 0 .587-.48 1.056-1.056 1.056Zm0-4.224H26.3c-.586 0-1.056-.469-1.056-1.056 0-.576.47-1.056 1.056-1.056h7.19c.576 0 1.056.48 1.056 1.056 0 .587-.48 1.056-1.056 1.056Zm0-4.213H26.3c-.586 0-1.056-.48-1.056-1.056 0-.587.47-1.056 1.056-1.056h7.19c.576 0 1.056.47 1.056 1.056 0 .576-.48 1.056-1.056 1.056Zm0-4.224H26.3c-.586 0-1.056-.47-1.056-1.056 0-.576.47-1.056 1.056-1.056h7.19c.576 0 1.056.48 1.056 1.056 0 .587-.48 1.056-1.056 1.056Z" fill="#fff"/><path d="M42.694 24.477v19.27c0 .581-.475 1.056-1.055 1.056H27.633c-.59 0-1.055-.475-1.055-1.055v-1.055h12.006a2.018 2.018 0 0 0 2.012-2.012v-17.26h1.043c.58 0 1.055.476 1.055 1.056Z" fill="#fff"/></svg>