<svg width="64" height="64" viewBox="0 0 64 64" fill="none" xmlns="http://www.w3.org/2000/svg"><circle cx="32" cy="32" r="32" fill="#C3121B"/><path d="M40.916 36.114c-.229-.229-.457-.343-.686-.343 4.343-7.886-1.257-17.486-10.171-17.486a11.755 11.755 0 0 0-11.772 11.772c0 6.514 5.257 11.657 11.771 11.657 1.943 0 3.886-.457 5.715-1.486l.343.686 3.771 3.771c1.371 1.372 3.543 1.372 4.8 0 1.372-1.371 1.372-3.543 0-4.8l-3.771-3.771Zm-6.857-7.315-4.115 4.115a1.105 1.105 0 0 1-1.6 0l-2.286-2.286a1.105 1.105 0 0 1 0-1.6 1.105 1.105 0 0 1 1.6 0l1.486 1.486 3.315-3.315a1.105 1.105 0 0 1 1.6 0c.457.458.342 1.143 0 1.6Z" fill="#fff"/></svg>