<svg width="64" height="64" viewBox="0 0 64 64" fill="none" xmlns="http://www.w3.org/2000/svg"><circle cx="32" cy="32" r="32" fill="#C3121B"/><path d="m42.147 25.84-8.965-6.809a1.122 1.122 0 0 0-1.364 0l-8.965 6.809a1.084 1.084 0 0 0-.429.869V44.1c0 .605.495 1.1 1.1 1.1h6.27v-3.762a2.704 2.704 0 0 1 2.706-2.706c1.43 0 2.706 1.144 2.706 2.706V45.2h6.27c.605 0 1.1-.495 1.1-1.1V26.71c0-.341-.154-.66-.429-.87ZM27 35.3c0 .605-.495 1.1-1.1 1.1-.616 0-1.1-.495-1.1-1.1v-1.232c0-.616.484-1.1 1.1-1.1.605 0 1.1.484 1.1 1.1V35.3Zm0-5.632c0 .605-.495 1.1-1.1 1.1-.616 0-1.1-.495-1.1-1.1v-1.243c0-.605.484-1.1 1.1-1.1.605 0 1.1.495 1.1 1.1v1.243Zm4.4 5.632c0 .605-.495 1.1-1.1 1.1-.616 0-1.1-.495-1.1-1.1v-1.232c0-.616.484-1.1 1.1-1.1.605 0 1.1.484 1.1 1.1V35.3Zm0-5.632c0 .605-.495 1.1-1.1 1.1-.616 0-1.1-.495-1.1-1.1v-1.243c0-.605.484-1.1 1.1-1.1.605 0 1.1.495 1.1 1.1v1.243Zm1.001-4.092a1.64 1.64 0 0 1-1.65-1.65c0-.902.726-1.65 1.65-1.65.902 0 1.65.748 1.65 1.65 0 .913-.748 1.65-1.65 1.65Zm3.4 9.724c0 .605-.496 1.1-1.1 1.1-.617 0-1.1-.495-1.1-1.1v-1.232c0-.616.483-1.1 1.1-1.1.604 0 1.1.484 1.1 1.1V35.3Zm0-5.632c0 .605-.496 1.1-1.1 1.1-.617 0-1.1-.495-1.1-1.1v-1.243c0-.605.483-1.1 1.1-1.1.604 0 1.1.495 1.1 1.1v1.243Zm4.4 5.632c0 .605-.496 1.1-1.1 1.1-.617 0-1.1-.495-1.1-1.1v-1.232c0-.616.483-1.1 1.1-1.1.604 0 1.1.484 1.1 1.1V35.3Zm0-5.632c0 .605-.496 1.1-1.1 1.1-.617 0-1.1-.495-1.1-1.1v-1.243c0-.605.483-1.1 1.1-1.1.604 0 1.1.495 1.1 1.1v1.243Z" fill="#fff"/></svg>