<svg width="32" height="32" viewBox="0 0 32 32" fill="none" xmlns="http://www.w3.org/2000/svg"><circle cx="16" cy="16" r="16" fill="#C3121B"/><path d="m22.73 15.886-.928-1.046-.765-3.775A1.388 1.388 0 0 0 19.685 10h-7.376a1.39 1.39 0 0 0-1.352 1.083l-.766 3.768-.92 1.035a1.774 1.774 0 0 0-.45 1.179v4.432a.5.5 0 0 0 .497.503h1.873a.506.506 0 0 0 .502-.503v-1.43h8.614v1.43a.5.5 0 0 0 .497.503h1.872a.506.506 0 0 0 .502-.503v-4.432c0-.437-.161-.856-.448-1.179Zm-10.606-4.54a.191.191 0 0 1 .185-.15h7.376c.09 0 .167.06.185.126l.652 3.212h-9.05l.652-3.188Zm-.545 7.113a.9.9 0 0 1-.514.155.925.925 0 0 1-.772-.4.937.937 0 0 1-.173-.545.945.945 0 1 1 1.89 0 .946.946 0 0 1-.43.79Zm7.047-.234c0 .168-.138.3-.305.3h-4.648a.296.296 0 0 1-.3-.3v-1.112c0-.168.133-.305.3-.305h4.648c.167 0 .305.137.305.305v1.112Zm1.364-.556a.945.945 0 1 1 1.89 0 .937.937 0 0 1-.173.544.941.941 0 0 1-.772.401.943.943 0 0 1-.514-.15.949.949 0 0 1-.431-.795Z" fill="#fff"/></svg>