<svg width="32" height="32" viewBox="0 0 32 32" fill="none" xmlns="http://www.w3.org/2000/svg"><circle cx="16" cy="16" r="16" fill="#C3121B"/><path d="M20.964 11.864h-1.967v-1.162c0-.663-.571-1.202-1.273-1.202h-3.448c-.702 0-1.273.54-1.273 1.202v1.162h-1.967c-1.12 0-2.036.86-2.036 1.924V15h6.096c.017-.457.42-.827.904-.827.484 0 .887.37.904.827H23v-1.212c0-1.064-.916-1.924-2.036-1.924Zm-6.794-1.162c0-.055.047-.1.106-.1h3.448c.059 0 .106.045.106.1v1.139h-3.66v-1.139ZM16 17.38a.906.906 0 0 1-.904-.88H9v3.945a2.05 2.05 0 0 0 2.036 2.055h9.928A2.05 2.05 0 0 0 23 20.445V16.5h-6.096a.906.906 0 0 1-.904.88Z" fill="#fff"/></svg>