<svg width="64" height="64" viewBox="0 0 64 64" fill="none" xmlns="http://www.w3.org/2000/svg"><circle cx="32" cy="32" r="32" fill="#C3121B"/><path d="M35.771 18.286h-7.885c-.572 0-1.143.114-1.6.343-.457.228-.8.457-1.143.8l-4.914 4.8c-.229.343-.572.685-.8 1.143-.229.457-.343 1.028-.343 1.6v12.8a3.854 3.854 0 0 0 3.885 3.885h7.886c-.8-1.257-1.143-2.857-1.143-4.343 0-4.8 3.886-8.8 8.8-8.8.457 0 .8 0 1.143.115v-8.457a3.854 3.854 0 0 0-3.886-3.886Z" fill="#fff"/><path d="M32.114 39.314c0 1.143.343 2.286.915 3.2 1.142 1.943 3.2 3.2 5.485 3.2a6.39 6.39 0 0 0 6.4-6.4 6.39 6.39 0 0 0-6.4-6.4 6.39 6.39 0 0 0-6.4 6.4Zm7.543-2.057v.8h.8c.686 0 1.143.572 1.143 1.143 0 .686-.572 1.143-1.143 1.143h-.8v.8c0 .686-.571 1.143-1.143 1.143-.686 0-1.143-.572-1.143-1.143v-.8h-.8c-.685 0-1.142-.572-1.142-1.143 0-.686.571-1.143 1.142-1.143h.8v-.8c0-.686.572-1.143 1.143-1.143.572 0 1.143.572 1.143 1.143Z" fill="#fff"/></svg>