<svg width="64" height="64" viewBox="0 0 64 64" fill="none" xmlns="http://www.w3.org/2000/svg"><circle cx="32" cy="32" r="32" fill="#C3121B"/><path d="M44.032 42.892V20.108c0-2.176-1.792-3.968-3.968-3.968h-10.24c-1.024 0-2.048.512-2.688 1.152l-5.888 5.632c-.768.64-1.28 1.792-1.28 2.944v17.024c0 2.176 1.792 3.968 3.968 3.968h16.128c2.176 0 3.968-1.792 3.968-3.968ZM22.528 25.868c0-.512.256-.896.512-1.152l5.888-5.632c.256-.256.64-.384 1.024-.384h.128v4.864c0 1.28-1.024 2.432-2.432 2.432h-5.12v-.128Zm15.616 15.36h-12.16c-.768 0-1.28-.64-1.28-1.28 0-.768.512-1.28 1.28-1.28h12.16c.768 0 1.28.512 1.28 1.28s-.64 1.28-1.28 1.28Zm0-6.144h-12.16c-.768 0-1.28-.512-1.28-1.28 0-.64.512-1.28 1.28-1.28h12.16c.768 0 1.28.64 1.28 1.28 0 .768-.64 1.28-1.28 1.28Z" fill="#fff"/></svg>