<svg width="238" height="237" viewBox="0 0 238 237" fill="none" xmlns="http://www.w3.org/2000/svg"><g clip-path="url(#a)"><path fill-rule="evenodd" clip-rule="evenodd" d="m69.332 140.174-21.775-21.771 21.81-21.805-31.828-31.82-22.737 22.731c-17.028 17.025-17.028 44.749 0 61.773l.928.928-.008.007 21.782 21.778 31.828-31.821ZM88.1 222.542 65.384 199.83l31.827-31.821 21.795 21.79 21.78-21.775 31.827 31.821-21.782 21.778-.013-.013-.932.932c-17.028 17.024-44.758 17.024-61.785 0Zm.011-208.334c17.028-17.024 44.758-17.024 61.785 0l22.737 22.732-31.827 31.821-21.804-21.8-21.798 21.794-31.828-31.82L87.18 15.137l.002.002.931-.931Zm112.371 157.789 22.717-22.713c17.027-17.024 17.027-44.748 0-61.772l-.935-.935-53.61 53.599 31.828 31.821Zm-.017-107.228 21.802 21.798-31.828 31.821-21.802-21.798 31.828-31.82Z" fill="#C3121B"/></g><defs><clipPath id="a"><path fill="#fff" d="M0 0h238v237H0z"/></clipPath></defs></svg>