<svg width="64" height="64" viewBox="0 0 64 64" fill="none" xmlns="http://www.w3.org/2000/svg"><circle cx="32" cy="32" r="32" fill="#C3121B"/><path d="M43.195 27.156a3 3 0 0 0-2.102-.875H37.19l-2.56 3.477a2.646 2.646 0 0 1-2.058 1.078h-.064c-.768 0-1.494-.331-2.005-.918l-2.955-3.637h-4.64c-.8 0-1.547.31-2.102.843a3.059 3.059 0 0 0-.928 2.186v12.246a3.041 3.041 0 0 0 3.03 3.029h18.186a3.04 3.04 0 0 0 3.03-3.03V29.31c0-.821-.352-1.621-.928-2.154Zm-3.435 5.866-5.61 5.056a3.2 3.2 0 0 1-2.155.832 3.22 3.22 0 0 1-2.155-.832l-5.6-5.056a1.077 1.077 0 0 1-.085-1.514 1.076 1.076 0 0 1 1.514-.075l5.6 5.067a1.091 1.091 0 0 0 1.451 0l5.61-5.067a1.064 1.064 0 0 1 1.505.075c.395.437.362 1.12-.075 1.514Z" fill="#fff"/><path d="M32.52 28.698a.498.498 0 0 0 .388-.2l2.739-3.725a.502.502 0 0 0 .047-.537.517.517 0 0 0-.46-.271l-1.324.032a4.122 4.122 0 0 1 2.887-3.455.507.507 0 0 0-.034-.98c-3.157-.76-6.067 1.508-6.316 4.52l-.868.02a.506.506 0 0 0-.448.294.492.492 0 0 0 .064.534l2.916 3.587a.518.518 0 0 0 .408.181Z" fill="#fff"/></svg>