<svg width="40" height="40" viewBox="0 0 40 40" fill="none" xmlns="http://www.w3.org/2000/svg"><path fill-rule="evenodd" clip-rule="evenodd" d="M22.904 4.49a11.206 11.206 0 0 1 4.375.214 11.107 11.107 0 0 1 5.164 2.931l-.816.816.816-.816a11.107 11.107 0 0 1 2.931 5.165c.36 1.432.43 2.92.214 4.374a1.154 1.154 0 1 1-2.283-.34 8.896 8.896 0 0 0-.17-3.473 8.798 8.798 0 0 0-2.324-4.094 8.8 8.8 0 0 0-4.094-2.325 8.899 8.899 0 0 0-3.473-.169 1.154 1.154 0 0 1-.34-2.282Z" fill="#C3121B"/><path fill-rule="evenodd" clip-rule="evenodd" d="M23.187 9.997a5.763 5.763 0 0 1 4.934 1.626 5.763 5.763 0 0 1 1.626 4.934 1.154 1.154 0 1 1-2.282-.34 3.455 3.455 0 0 0-.976-2.962m0 0a3.455 3.455 0 0 0-2.962-.976 1.154 1.154 0 0 1-.34-2.282" fill="#C3121B"/><path d="M13.365 7.918c.56 0 1.074.303 1.345.792l1.882 3.39c.247.443.258.98.031 1.434L14.81 17.16s.525 2.701 2.724 4.9c2.2 2.199 4.891 2.715 4.891 2.715l3.625-1.812a1.538 1.538 0 0 1 1.436.03l3.4 1.89c.488.272.79.787.79 1.346v3.902c0 1.988-1.846 3.423-3.729 2.788-3.867-1.305-9.871-3.79-13.676-7.595-3.806-3.806-6.29-9.81-7.595-13.677-.636-1.883.8-3.729 2.787-3.729h3.902Z" fill="#C3121B"/><path fill-rule="evenodd" clip-rule="evenodd" d="M9.464 9.072c-1.266 0-2.055 1.135-1.694 2.207 1.297 3.843 3.714 9.625 7.318 13.23 3.604 3.603 9.386 6.02 13.23 7.317 1.071.362 2.206-.428 2.206-1.694v-3.903a.384.384 0 0 0-.198-.336l-3.4-1.89a.385.385 0 0 0-.358-.008l-3.626 1.813a1.154 1.154 0 0 1-.733.1l.217-1.132-.218 1.133h-.002l-.005-.002-.011-.002-.035-.007a8.317 8.317 0 0 1-.504-.128 11.434 11.434 0 0 1-1.298-.466c-1.042-.444-2.402-1.196-3.633-2.427-1.232-1.232-1.986-2.594-2.432-3.637a11.506 11.506 0 0 1-.468-1.3 8.346 8.346 0 0 1-.13-.505l-.007-.035-.003-.011v-.007h-.001l1.132-.221-1.132.22a1.154 1.154 0 0 1 .1-.736l1.813-3.626a.385.385 0 0 0-.007-.359l-1.882-3.39a.385.385 0 0 0-.336-.198H9.463Zm6.571 8.221v.002c.073.25.193.611.375 1.038.366.857.974 1.945 1.941 2.912m0 0c.968.967 2.053 1.572 2.907 1.936.425.181.785.3 1.033.371h.002l3.243-1.62v-.001a2.692 2.692 0 0 1 2.512.055l-.522.938.522-.938 3.4 1.89a2.692 2.692 0 0 1 1.384 2.353v3.903c0 2.708-2.558 4.79-5.252 3.88-3.892-1.313-10.117-3.866-14.124-7.872-4.006-4.006-6.56-10.232-7.872-14.123l1.018-.344-1.018.344c-.91-2.695 1.172-5.252 3.88-5.252h3.902c.979 0 1.88.53 2.354 1.385l1.882 3.39c.431.777.452 1.716.054 2.51l-1.62 3.243" fill="#C3121B"/></svg>