<svg width="52" height="64" viewBox="0 0 52 64" fill="none" xmlns="http://www.w3.org/2000/svg"><path d="M25.6 0A25.6 25.6 0 0 0 0 25.344C0 42.88 22.56 62.4 23.52 63.232a3.2 3.2 0 0 0 4.16 0C28.8 62.4 51.2 42.88 51.2 25.344A25.6 25.6 0 0 0 25.6 0Z" fill="#C3121B"/><path d="m18.87 36.74 2.996 2.996a5.771 5.771 0 0 0 8.149 0l.123-.123-7.07-7.07-4.198 4.197ZM12.198 30.074a5.768 5.768 0 0 1 0-8.148l3-2.998 4.197 4.197-7.073 7.072-.124-.123Z" fill="#fff"/><path d="m16.517 26 2.873 2.872-4.197 4.197-2.873-2.872L16.517 26ZM30.14 39.615l2.872-2.873-4.198-4.196-2.872 2.872 4.198 4.197ZM21.867 12.258a5.771 5.771 0 0 1 8.15 0l2.998 2.999-4.198 4.197-7.073-7.072.123-.124Z" fill="#fff"/><path d="m25.942 16.578-2.875 2.875-4.198-4.197 2.875-2.875 4.198 4.197ZM36.688 33.07l2.996-2.996a5.768 5.768 0 0 0 0-8.147l-.123-.124-7.07 7.07 4.197 4.196ZM39.561 21.802l-2.875-2.875-4.198 4.197 2.875 2.875 4.198-4.197Z" fill="#fff"/></svg>