<svg width="320" height="448" viewBox="0 0 320 448" fill="none" xmlns="http://www.w3.org/2000/svg"><path opacity=".12" d="M294.159 115.322c0-23.39-6.111-42.336-18.332-56.838-12.222-14.502-28.298-21.753-48.228-21.753h-90.25v157.182h90.25c19.93 0 36.006-7.251 48.228-21.752 12.221-14.502 18.332-33.448 18.332-56.839Zm66.841 0c0 45.143-11.892 81.983-35.677 110.519s-54.479 42.804-92.083 42.804h-95.891v41.4h142.426c2.632 0 4.795 1.053 6.487 3.158 1.692 2.105 2.538 4.795 2.538 8.07v44.909c0 3.274-.846 5.964-2.538 8.069-1.692 2.106-3.855 3.158-6.487 3.158H137.349v67.364c0 3.274-.893 5.964-2.679 8.069-1.786 2.105-3.902 3.158-6.346 3.158H81.225c-2.632 0-4.794-1.053-6.487-3.158-1.692-2.105-2.538-4.795-2.538-8.069v-67.364H9.025c-2.632 0-4.795-1.052-6.487-3.158C.846 372.146 0 369.456 0 366.182v-44.909c0-3.275.846-5.965 2.538-8.07 1.692-2.105 3.855-3.158 6.487-3.158H72.2v-41.4H9.025c-2.632 0-4.795-1.053-6.487-3.158C.846 263.382 0 260.692 0 257.418v-52.277c0-3.041.846-5.672 2.538-7.895 1.692-2.222 3.855-3.333 6.487-3.333H72.2V-26.773c0-3.274.846-5.964 2.538-8.07C76.43-36.946 78.593-38 81.225-38H233.24c37.604 0 68.298 14.268 92.083 42.804C349.108 33.34 361 70.179 361 115.322Z" fill="#fff"/></svg>