<svg width="32" height="32" viewBox="0 0 32 32" fill="none" xmlns="http://www.w3.org/2000/svg"><circle cx="16" cy="16" r="16" fill="#C3121B"/><g clip-path="url(#a)"><path d="M16.18 23.36c4.224 0 7.68-3.456 7.68-7.68S20.404 8 16.18 8 8.5 11.456 8.5 15.68s3.456 7.68 7.68 7.68Z" fill="#fff"/><path d="M18.704 13.948c0-.45-.119-.814-.356-1.093-.236-.278-.548-.418-.935-.418h-1.75v3.023h1.75c.387 0 .698-.14.935-.419.237-.278.356-.643.356-1.093Zm1.296 0c0 .869-.23 1.577-.692 2.126-.461.549-1.056.823-1.785.823h-1.86v.796h2.762c.051 0 .093.02.126.06.033.041.049.093.049.156v.864a.239.239 0 0 1-.05.155.155.155 0 0 1-.125.06h-2.762v1.296a.23.23 0 0 1-.052.155.157.157 0 0 1-.123.061h-.913a.155.155 0 0 1-.126-.06.239.239 0 0 1-.049-.156V18.99h-1.225a.155.155 0 0 1-.126-.061.239.239 0 0 1-.049-.155v-.864c0-.063.016-.115.05-.155a.155.155 0 0 1 .125-.06H14.4v-.797h-1.225a.155.155 0 0 1-.126-.06.239.239 0 0 1-.049-.156v-1.005c0-.059.016-.11.05-.152a.152.152 0 0 1 .125-.064H14.4v-4.244c0-.063.016-.115.05-.155a.155.155 0 0 1 .125-.061h2.948c.729 0 1.324.274 1.785.823.461.549.692 1.257.692 2.125Z" fill="#C3121B"/></g><defs><clipPath id="a"><path fill="#fff" transform="translate(8 7.75)" d="M0 0h16v16H0z"/></clipPath></defs></svg>