<svg width="32" height="32" viewBox="0 0 32 32" fill="none" xmlns="http://www.w3.org/2000/svg"><circle cx="16" cy="16" r="16" fill="#C3121B"/><g clip-path="url(#a)"><path d="M21.085 22.43h-.461v-9.678a1.17 1.17 0 0 0-1.171-1.164h-.507v-1.215a.701.701 0 0 0-.7-.702h-.58v-.993a.887.887 0 0 0-.887-.887h-1.566a.89.89 0 0 0-.888.887v.993h-.572a.701.701 0 0 0-.701.702v1.215h-.511a1.17 1.17 0 0 0-1.165 1.165v9.676h-.46a.638.638 0 0 0-.64.64c0 .352.28.64.64.64h10.169c.352 0 .64-.288.64-.64a.642.642 0 0 0-.64-.64Zm-4.64-7.994h-.89a.2.2 0 0 1-.198-.199v-.921a.2.2 0 0 1 .198-.199h.89c.109 0 .192.09.192.199v.921a.194.194 0 0 1-.192.199Zm.192 1.792v.928a.194.194 0 0 1-.192.198h-.89a.2.2 0 0 1-.198-.198v-.928c0-.103.09-.192.198-.192h.89c.109 0 .192.09.192.192Zm1.28 0c0-.103.09-.192.198-.192h.89c.109 0 .192.09.192.192v.928a.194.194 0 0 1-.192.198h-.89a.2.2 0 0 1-.198-.198v-.928Zm1.28-2.912v.921a.194.194 0 0 1-.192.199h-.89a.2.2 0 0 1-.198-.199v-.921a.2.2 0 0 1 .198-.199h.89c.109 0 .192.09.192.199Zm-6.4 0a.2.2 0 0 1 .198-.199h.89c.109 0 .192.09.192.199v.921a.194.194 0 0 1-.192.199h-.89a.2.2 0 0 1-.198-.199v-.921Zm0 2.912c0-.103.09-.192.198-.192h.89c.109 0 .192.09.192.192v.928a.194.194 0 0 1-.192.198h-.89a.2.2 0 0 1-.198-.198v-.928Zm1.862 6.201v-2.105c0-.743.595-1.344 1.338-1.344.75 0 1.344.593 1.344 1.344v2.105h-2.682Z" fill="#fff"/></g><defs><clipPath id="a"><path fill="#fff" transform="translate(8 7.75)" d="M0 0h16v16H0z"/></clipPath></defs></svg>