<svg width="64" height="64" viewBox="0 0 64 64" fill="none" xmlns="http://www.w3.org/2000/svg"><circle cx="32" cy="32" r="32" fill="#C3121B"/><path d="m43.86 39.321-3.877-3.876a.992.992 0 0 0-1.422 0l-.616.617-.89-.89.003-.002c2.975-3.894 2.677-9.515-.875-13.067-3.883-3.872-10.198-3.872-14.07.01-3.882 3.872-3.882 10.187-.01 14.06 3.535 3.554 9.177 3.86 13.066.885l.89.889-.622.623a.997.997 0 0 0 0 1.412l3.876 3.876a3.215 3.215 0 0 0 4.546 0c1.269-1.248 1.244-3.314 0-4.537ZM24.545 33.73c-2.518-2.528-2.507-6.635.01-9.174 2.538-2.515 6.652-2.522 9.174 0 2.444 2.424 2.592 6.558 0 9.174a6.528 6.528 0 0 1-9.184 0Z" fill="#fff"/></svg>