<svg width="64" height="64" viewBox="0 0 64 64" fill="none" xmlns="http://www.w3.org/2000/svg"><circle cx="32" cy="32" r="32" fill="#C3121B"/><g clip-path="url(#a)" fill="#fff"><path d="M25.984 42.636a1.28 1.28 0 1 0 0-2.56 1.28 1.28 0 0 0 0 2.56ZM38.017 42.636a1.28 1.28 0 1 0 0-2.56 1.28 1.28 0 0 0 0 2.56Z"/><path d="M35.713 31.5c.256.256.64.384 1.024.384s.768-.128 1.024-.384c2.048-2.048 5.248-2.048 7.296 0 .256.256.64.384 1.024.384.128 0 .384 0 .512-.128.512-.256.896-.768.896-1.28C47.105 22.028 40.32 15.5 32 15.5s-15.104 6.528-15.36 14.976c0 .512.256 1.152.896 1.28a1.361 1.361 0 0 0 1.536-.256c2.048-2.048 5.376-2.048 7.296 0 .256.256.64.384 1.024.384s.768-.128 1.024-.384c.64-.64 1.536-1.152 2.432-1.28v5.12h-7.424c-1.024 0-1.92.768-1.92 1.92v8.576c0 .768.896 1.664 1.92 1.664h17.28c1.024 0 1.92-.896 1.92-1.92v-8.576c0-1.024-.896-1.92-1.92-1.92H33.28v-5.12c.896.384 1.664.768 2.432 1.536ZM25.6 45.708a.875.875 0 0 1-.896-.896c0-.384-.256-.64-.64-.64a.875.875 0 0 1-.896-.896V39.18c0-.512.384-.896.896-.896.384 0 .64-.256.64-.64 0-.512.384-.896.896-.896h5.12v.128c-1.28.64-2.048 2.304-2.048 4.352 0 2.048 1.024 3.84 2.304 4.48H25.6Zm12.8-8.832c.512 0 .896.384.896.896 0 .384.256.64.64.64.512 0 .896.384.896.896v4.096a.875.875 0 0 1-.896.896c-.384 0-.64.256-.64.64a.875.875 0 0 1-.896.896h-5.248c1.28-.64 2.304-2.432 2.304-4.48 0-1.92-.896-3.584-2.048-4.352v-.128H38.4Z"/></g><defs><clipPath id="a"><path fill="#fff" transform="translate(16 15.5)" d="M0 0h32v32H0z"/></clipPath></defs></svg>