<svg width="64" height="64" viewBox="0 0 64 64" fill="none" xmlns="http://www.w3.org/2000/svg"><circle cx="32" cy="32" r="32" fill="#C3121B"/><path d="M42.644 26.16H21.346a3.574 3.574 0 0 0-3.568 3.578v11.829c0 1.967 1.6 3.567 3.568 3.567h21.298c1.979 0 3.579-1.6 3.579-3.567V29.738c0-1.979-1.6-3.579-3.58-3.579Zm1.208 10.216a.834.834 0 0 1-.651.805 7.04 7.04 0 0 0-4.93 4.93c-.108.38-.428.653-.819.653H26.537c-.38 0-.7-.273-.806-.652a7.04 7.04 0 0 0-4.93-4.93.834.834 0 0 1-.652-.806V34.93c0-.392.272-.712.651-.818a7.04 7.04 0 0 0 4.93-4.93c.108-.38.428-.652.807-.652h10.915c.392 0 .712.272.818.651a7.04 7.04 0 0 0 4.93 4.93c.38.107.652.427.652.819v1.446Z" fill="#fff"/><path d="M31.999 39.996c2.155 0 3.901-1.946 3.901-4.346 0-2.4-1.746-4.345-3.901-4.345s-3.901 1.945-3.901 4.345c0 2.4 1.746 4.346 3.9 4.346ZM43.26 24.384H20.74a1.185 1.185 0 1 1 0-2.37h22.52a1.185 1.185 0 1 1 0 2.37ZM39.112 20.236l-14.224.002a1.185 1.185 0 1 1 0-2.37l14.224-.002a1.185 1.185 0 1 1 0 2.37Z" fill="#fff"/></svg>