<svg width="64" height="64" viewBox="0 0 64 64" fill="none" xmlns="http://www.w3.org/2000/svg"><circle cx="32" cy="32" r="32" fill="#C3121B"/><path d="M19.967 42.892c0 2.176 1.792 3.968 3.968 3.968h10.24c1.024 0 2.048-.512 2.688-1.152l5.888-5.632c.768-.64 1.28-1.792 1.28-2.944V20.108c0-2.176-1.792-3.968-3.968-3.968H23.935c-2.176 0-3.968 1.792-3.968 3.968v22.784Zm21.504-5.76c0 .512-.256.896-.512 1.152l-5.888 5.632c-.256.256-.64.384-1.024.384h-.128v-4.864c0-1.28 1.024-2.432 2.432-2.432h5.12v.128Zm-13.568-17.28h8.32c.64 0 1.28.64 1.28 1.28 0 .768-.64 1.28-1.28 1.28h-8.32c-.768 0-1.28-.512-1.28-1.28s.512-1.28 1.28-1.28Zm-2.56 5.504h13.44c.64 0 1.28.512 1.28 1.28 0 .64-.64 1.28-1.28 1.28h-13.44c-.768 0-1.28-.64-1.28-1.28 0-.768.512-1.28 1.28-1.28Zm0 5.376h5.76c.768 0 1.28.512 1.28 1.28 0 .64-.512 1.28-1.28 1.28h-5.76c-.768 0-1.28-.64-1.28-1.28 0-.768.512-1.28 1.28-1.28Z" fill="#fff"/></svg>