<svg width="64" height="64" viewBox="0 0 64 64" fill="none" xmlns="http://www.w3.org/2000/svg"><circle cx="32" cy="32" r="32" fill="#C3121B"/><path d="m45.46 31.773-1.855-2.094-1.531-7.55A2.776 2.776 0 0 0 39.37 20H24.618c-1.28 0-2.393.873-2.704 2.166l-1.531 7.537-1.843 2.07a3.549 3.549 0 0 0-.897 2.357v8.865A1 1 0 0 0 18.636 44h3.745c.55 0 1.005-.455 1.005-1.005v-2.86h17.228v2.86c0 .55.443 1.005.993 1.005h3.745c.55 0 1.005-.455 1.005-1.005V34.13a3.55 3.55 0 0 0-.898-2.357Zm-21.213-9.081c.048-.18.192-.3.371-.3H39.37c.18 0 .335.12.37.252l1.305 6.425H22.943l1.304-6.377ZM23.16 36.917c-.3.204-.646.311-1.03.311a1.85 1.85 0 0 1-1.543-.801 1.874 1.874 0 0 1-.347-1.089 1.89 1.89 0 1 1 3.781 0c0 .658-.347 1.244-.861 1.579Zm14.093-.466a.603.603 0 0 1-.61.598h-9.296a.592.592 0 0 1-.598-.598v-2.226c0-.335.263-.61.598-.61h9.296c.335 0 .61.275.61.61v2.226Zm2.728-1.113a1.89 1.89 0 1 1 3.78 0c0 .407-.131.79-.346 1.089-.347.49-.91.801-1.544.801-.383 0-.73-.107-1.029-.299a1.898 1.898 0 0 1-.861-1.591Z" fill="#fff"/></svg>