<svg width="64" height="64" viewBox="0 0 64 64" fill="none" xmlns="http://www.w3.org/2000/svg"><circle cx="32" cy="32" r="32" fill="#C3121B"/><path d="M41.928 23.728h-3.935v-2.324c0-1.326-1.142-2.404-2.544-2.404h-6.897c-1.404 0-2.546 1.078-2.546 2.404v2.324h-3.934c-2.24 0-4.072 1.72-4.072 3.847V30h12.192c.035-.915.84-1.653 1.808-1.653.968 0 1.773.738 1.808 1.653H46v-2.425c0-2.127-1.832-3.847-4.072-3.847ZM28.34 21.404c0-.11.094-.2.212-.2h6.897c.116 0 .21.09.21.2v2.277h-7.32v-2.277ZM32 34.761c-.98 0-1.785-.786-1.808-1.761H18v7.89c0 2.267 1.832 4.11 4.072 4.11h19.856C44.168 45 46 43.157 46 40.89V33H33.808A1.811 1.811 0 0 1 32 34.761Z" fill="#fff"/></svg>