<svg width="64" height="64" viewBox="0 0 64 64" fill="none" xmlns="http://www.w3.org/2000/svg"><circle cx="32" cy="32" r="32" fill="#C3121B"/><path d="M32.36 46.72c8.448 0 15.36-6.912 15.36-15.36S40.808 16 32.36 16 17 22.912 17 31.36s6.912 15.36 15.36 15.36Z" fill="#fff"/><path d="M37.408 27.897c0-.9-.237-1.628-.711-2.186s-1.098-.837-1.87-.837h-3.5v6.046h3.5c.773 0 1.396-.28 1.87-.837.474-.558.71-1.286.71-2.186Zm2.592 0c0 1.736-.461 3.153-1.384 4.25-.922 1.098-2.112 1.647-3.57 1.647h-3.72v1.592h5.524a.31.31 0 0 1 .252.122.477.477 0 0 1 .098.31v1.727c0 .126-.033.23-.098.31a.31.31 0 0 1-.252.122h-5.523v2.591c0 .126-.035.23-.104.31a.315.315 0 0 1-.246.122H29.15a.31.31 0 0 1-.252-.121.477.477 0 0 1-.098-.31v-2.592h-2.45a.31.31 0 0 1-.252-.121.477.477 0 0 1-.098-.31v-1.728c0-.126.033-.23.098-.31a.31.31 0 0 1 .252-.122h2.45v-1.592h-2.45a.31.31 0 0 1-.252-.121.477.477 0 0 1-.098-.31v-2.011c0-.117.033-.219.098-.304a.304.304 0 0 1 .252-.128h2.45v-8.488c0-.126.033-.23.098-.31A.31.31 0 0 1 29.15 22h5.895c1.459 0 2.649.549 3.571 1.646C39.54 24.744 40 26.161 40 27.897Z" fill="#C3121B"/></svg>