<svg width="64" height="64" viewBox="0 0 64 64" fill="none" xmlns="http://www.w3.org/2000/svg"><circle cx="32" cy="32" r="32" fill="#C3121B"/><path d="M42.645 22.507H21.358a3.584 3.584 0 0 0-3.58 3.58v11.828c0 1.967 1.6 3.579 3.58 3.579h21.285c1.98 0 3.58-1.612 3.58-3.58V26.088c0-1.968-1.6-3.58-3.58-3.58ZM43.2 33.59a.568.568 0 0 1-.533.557 5.018 5.018 0 0 0-4.456 4.444.568.568 0 0 1-.557.534H26.348a.568.568 0 0 1-.557-.534 5.018 5.018 0 0 0-4.456-4.444.568.568 0 0 1-.534-.557V30.4c0-.297.238-.534.534-.557a5.018 5.018 0 0 0 4.456-4.445.568.568 0 0 1 .557-.533h11.307c.296 0 .533.237.557.533a5.018 5.018 0 0 0 4.456 4.445c.297.023.534.26.534.557v3.188Z" fill="#fff"/><path d="M32 35.556a3.555 3.555 0 1 0 0-7.111 3.555 3.555 0 0 0 0 7.11Z" fill="#fff"/></svg>