<svg width="65" height="64" viewBox="0 0 65 64" fill="none" xmlns="http://www.w3.org/2000/svg"><circle cx="32.002" cy="32" r="32" fill="#C3121B"/><path d="M37.438 19.198H22.356a1.05 1.05 0 0 0-1.046 1.056v19.274a1.05 1.05 0 0 0 1.046 1.056h15.082c.576 0 1.046-.48 1.046-1.056V20.255c0-.576-.47-1.056-1.046-1.056Zm-3.946 18.08h-7.19c-.586 0-1.055-.47-1.055-1.056 0-.587.469-1.056 1.055-1.056h7.19c.576 0 1.056.47 1.056 1.056 0 .586-.48 1.056-1.056 1.056Zm0-4.224h-7.19c-.586 0-1.055-.47-1.055-1.056 0-.576.469-1.056 1.055-1.056h7.19c.576 0 1.056.48 1.056 1.056 0 .586-.48 1.056-1.056 1.056Zm0-4.214h-7.19c-.586 0-1.055-.48-1.055-1.055 0-.587.469-1.056 1.055-1.056h7.19c.576 0 1.056.469 1.056 1.056 0 .575-.48 1.055-1.056 1.055Zm0-4.224h-7.19c-.586 0-1.055-.469-1.055-1.055 0-.576.469-1.056 1.055-1.056h7.19c.576 0 1.056.48 1.056 1.056 0 .586-.48 1.055-1.056 1.055Z" fill="#fff"/><path d="M42.696 24.476v19.27c0 .581-.474 1.056-1.055 1.056H27.635c-.59 0-1.055-.475-1.055-1.055v-1.055h12.006a2.018 2.018 0 0 0 2.012-2.012V23.42h1.043c.58 0 1.055.476 1.055 1.056Z" fill="#fff"/></svg>