<svg width="64" height="64" viewBox="0 0 64 64" fill="none" xmlns="http://www.w3.org/2000/svg"><circle cx="32" cy="32" r="32" fill="#C3121B"/><path d="M44.643 29.932c0 .569-.465 1.034-1.034 1.034h-5.294a1.037 1.037 0 0 1-1.033-1.034c0-1.86-1.51-3.37-3.371-3.37a1.037 1.037 0 0 1-1.034-1.034v-5.294c0-.569.465-1.034 1.034-1.034 5.914 0 10.732 4.818 10.732 10.732Z" fill="#fff"/><path d="M40.826 34.068c0 2.854-1.117 5.552-3.144 7.59a10.65 10.65 0 0 1-7.589 3.142c-5.914 0-10.732-4.818-10.732-10.732s4.818-10.732 10.732-10.732c.57 0 1.034.465 1.034 1.034v5.293c0 .57-.465 1.034-1.034 1.034a3.371 3.371 0 1 0 3.371 3.371c0-.569.465-1.034 1.034-1.034h5.294c.568 0 1.034.465 1.034 1.034Z" fill="#fff"/></svg>