<svg width="64" height="64" viewBox="0 0 64 64" fill="none" xmlns="http://www.w3.org/2000/svg"><circle cx="32" cy="32" r="32" fill="#C3121B"/><path d="m43.501 30.798-1.653-1.867-1.366-6.73a2.475 2.475 0 0 0-2.41-1.9H24.92c-1.142 0-2.133.78-2.41 1.932l-1.366 6.72-1.643 1.845a3.164 3.164 0 0 0-.8 2.101v7.904c0 .49.395.896.886.896h3.338c.49 0 .896-.405.896-.896v-2.55h15.36v2.55c0 .49.395.896.886.896h3.338c.49 0 .896-.405.896-.896V32.9c0-.779-.288-1.525-.8-2.101ZM24.59 22.702a.34.34 0 0 1 .33-.267h13.153c.16 0 .298.107.33.224l1.163 5.728H23.426l1.163-5.685Zm-.97 12.682a1.604 1.604 0 0 1-.918.278 1.65 1.65 0 0 1-1.376-.715 1.671 1.671 0 0 1-.31-.97 1.684 1.684 0 1 1 3.372 0c0 .586-.31 1.109-.768 1.407Zm12.565-.416a.537.537 0 0 1-.544.534h-8.288a.528.528 0 0 1-.534-.534v-1.984c0-.298.235-.543.534-.543h8.288c.298 0 .544.245.544.543v1.984Zm2.432-.992a1.684 1.684 0 1 1 3.37 0c0 .363-.117.704-.309.971-.31.437-.81.715-1.376.715-.341 0-.65-.096-.917-.267a1.692 1.692 0 0 1-.768-1.419Z" fill="#fff"/></svg>