<svg width="64" height="64" viewBox="0 0 64 64" fill="none" xmlns="http://www.w3.org/2000/svg"><circle cx="32" cy="32" r="32" fill="#C3121B"/><path fill-rule="evenodd" clip-rule="evenodd" d="M29.708 18.2h8.49a3.337 3.337 0 0 1 3.34 3.339v18.933a3.335 3.335 0 0 1-3.34 3.328H24.792a3.332 3.332 0 0 1-3.328-3.328v-14.24c0-.967.44-1.85 1.045-2.41l4.928-4.715a3.335 3.335 0 0 1 2.272-.907Zm-6.105 8.038c-.001.04-.002.07-.007.09h4.278a1.998 1.998 0 0 0 1.994-1.994v-4l-.075.003c-.206.006-.585.017-.895.327l-4.918 4.704c-.356.324-.37.69-.377.87Zm12.122 6.914h.303c1.084 0 1.972.872 1.972 1.935v.936a.922.922 0 0 1-.926.914h-.439A1.855 1.855 0 0 1 34.95 38a1.853 1.853 0 0 1-1.679-1.063h-3.44A1.853 1.853 0 0 1 28.154 38a1.855 1.855 0 0 1-1.685-1.063h-.536a.923.923 0 0 1-.932-.914V34.06c0-.5.417-.909.932-.909h-.044v-1.175c0-1.09.905-1.977 2.02-1.977h3.364c2.016 0 3.825 1.286 4.453 3.152Zm-.775 2.27c-.422 0-.769.34-.769.755 0 .42.347.76.77.76.427 0 .774-.34.774-.76a.766.766 0 0 0-.775-.755Zm-3.97-2.047h3.673c-.515-1.366-1.886-2.312-3.38-2.312h-.293v2.312Zm-3.071-2.312a.928.928 0 0 0-.937.914v1.398h2.925v-2.312h-1.988Zm.244 4.359a.766.766 0 0 0-.775.755c0 .42.347.76.774.76.423 0 .77-.34.77-.76a.765.765 0 0 0-.77-.755Z" fill="#fff"/></svg>