<svg width="64" height="64" viewBox="0 0 64 64" fill="none" xmlns="http://www.w3.org/2000/svg"><circle cx="32" cy="32" r="32" fill="#C3121B"/><path d="m46.383 29.152-4.211-3.549v-5.04a.942.942 0 0 0-.942-.942h-2.985a.942.942 0 0 0-.942.942v.934l-4.48-3.775a1.207 1.207 0 0 0-1.655 0L17.62 29.152a1.22 1.22 0 0 0-.305 1.339c.183.462.633.767 1.132.767h1.96v14.131c0 .67.548 1.217 1.217 1.217h20.753a1.22 1.22 0 0 0 1.217-1.217V31.258h1.96c.499 0 .95-.305 1.132-.78.183-.462.06-.985-.304-1.326ZM32.92 42.182a1.322 1.322 0 0 1-2.13 0c-1.68-2.314-4.772-6.866-4.772-9.203 0-3.213 2.617-5.83 5.843-5.83 3.225 0 5.842 2.617 5.842 5.83 0 2.337-3.092 6.89-4.783 9.202Z" fill="#fff"/><path d="M31.862 34.72a2.434 2.434 0 1 0 0-4.869 2.434 2.434 0 0 0 0 4.869Z" fill="#fff"/></svg>