<svg width="64" height="64" viewBox="0 0 64 64" fill="none" xmlns="http://www.w3.org/2000/svg"><circle cx="32" cy="32" r="32" fill="#C3121B"/><path d="M29.18 38.205c0 .96.142 1.897.415 2.773h-8.392a2.99 2.99 0 0 1-2.986-2.986v-7.3c0-2.229 1.505-4.102 3.544-4.682a6.798 6.798 0 0 0 5.95 3.52 6.807 6.807 0 0 0 5.925-3.461 4.919 4.919 0 0 1 3.01 2.856c-4.266.936-7.466 4.741-7.466 9.28Z" fill="#fff"/><path d="M32.754 22.715a5.052 5.052 0 0 1-5.043 5.043c-2.777 0-5.031-2.265-5.031-5.043a5.034 5.034 0 0 1 5.031-5.031c2.777 0 5.043 2.254 5.043 5.031ZM38.672 31.082a7.122 7.122 0 0 0-7.123 7.123c0 3.923 3.188 7.111 7.123 7.111a7.117 7.117 0 0 0 7.11-7.11c0-3.936-3.187-7.124-7.11-7.124Zm2.18 9.304c-.5.476-1.23.44-1.67 0l-1.28-1.28a1.166 1.166 0 0 1-.344-.83v-2.975c0-.651.521-1.185 1.185-1.185.652 0 1.185.534 1.185 1.185v2.477l.925.937a1.18 1.18 0 0 1 0 1.671Z" fill="#fff"/></svg>