<svg width="64" height="64" viewBox="0 0 64 64" fill="none" xmlns="http://www.w3.org/2000/svg"><circle cx="32" cy="32" r="32" fill="#C3121B"/><g clip-path="url(#a)"><path d="M42.168 44.859h-.922V25.505a2.34 2.34 0 0 0-2.342-2.33h-1.013v-2.43c0-.774-.628-1.402-1.402-1.402H35.33v-1.987c0-.98-.795-1.775-1.775-1.775h-3.132a1.78 1.78 0 0 0-1.775 1.775v1.987h-1.145c-.774 0-1.402.628-1.402 1.402v2.43H25.08c-1.28 0-2.33 1.05-2.33 2.33V44.86h-.921c-.717 0-1.28.576-1.28 1.28 0 .704.563 1.28 1.28 1.28h20.339c.704 0 1.28-.576 1.28-1.28 0-.704-.576-1.28-1.28-1.28Zm-9.28-15.987h-1.78a.399.399 0 0 1-.396-.397v-1.843c0-.218.18-.397.397-.397h1.779c.218 0 .384.179.384.397v1.843a.388.388 0 0 1-.384.397Zm.384 3.584v1.856a.388.388 0 0 1-.384.396h-1.78a.399.399 0 0 1-.396-.396v-1.856c0-.205.18-.384.397-.384h1.779c.218 0 .384.179.384.384Zm2.56 0c0-.205.18-.384.397-.384h1.779c.218 0 .384.179.384.384v1.856a.388.388 0 0 1-.384.396h-1.78a.399.399 0 0 1-.396-.396v-1.856Zm2.56-5.824v1.843a.388.388 0 0 1-.384.397h-1.78a.399.399 0 0 1-.396-.397v-1.843c0-.218.18-.397.397-.397h1.779c.218 0 .384.179.384.397Zm-12.8 0c0-.218.18-.397.397-.397h1.779c.218 0 .384.179.384.397v1.843a.388.388 0 0 1-.384.397h-1.78a.399.399 0 0 1-.396-.397v-1.843Zm0 5.824c0-.205.18-.384.397-.384h1.779c.218 0 .384.179.384.384v1.856a.388.388 0 0 1-.384.396h-1.78a.399.399 0 0 1-.396-.396v-1.856Zm3.725 12.403v-4.211a2.677 2.677 0 0 1 2.675-2.689 2.667 2.667 0 0 1 2.688 2.689v4.21h-5.363Z" fill="#fff"/></g><defs><clipPath id="a"><path fill="#fff" transform="translate(16 15.5)" d="M0 0h32v32H0z"/></clipPath></defs></svg>