<svg width="64" height="64" viewBox="0 0 64 64" fill="none" xmlns="http://www.w3.org/2000/svg"><circle cx="32" cy="32" r="32" fill="#C3121B"/><path d="M42.642 18.062H21.357c-1.98 0-3.58 1.6-3.58 3.568v11.828c0 1.979 1.6 3.579 3.58 3.579h9.515v4.854l-1.038-1.038a1.185 1.185 0 1 0-1.676 1.676l3.06 3.06c.22.221.53.349.839.349.308 0 .618-.127.839-.348l3.06-3.06a1.185 1.185 0 1 0-1.675-1.677l-1.039 1.039v-4.855h9.4c1.98 0 3.58-1.6 3.58-3.58V21.63c0-1.968-1.6-3.568-3.58-3.568Zm1.186 10.205a.672.672 0 0 1-.486.64 7.998 7.998 0 0 0-5.286 5.286.661.661 0 0 1-.64.486H26.583a.661.661 0 0 1-.64-.486 7.998 7.998 0 0 0-5.286-5.286.672.672 0 0 1-.486-.64v-1.423c0-.296.202-.545.486-.64a8.005 8.005 0 0 0 5.286-5.274.658.658 0 0 1 .64-.497h10.833c.308 0 .557.201.64.497a8.006 8.006 0 0 0 5.286 5.274.683.683 0 0 1 .486.64v1.423Z" fill="#fff"/><path d="M32 24.004c-1.683 0-3.047 1.588-3.047 3.548s1.364 3.549 3.047 3.549 3.047-1.589 3.047-3.549-1.364-3.548-3.047-3.548Z" fill="#fff"/></svg>